# Blender v2.74 (sub 0) OBJ File: 'easywing.blend'
# www.blender.org
mtllib left_wing.mtl
o dragon.015
v -0.342160 0.725921 0.475662
v 0.562057 0.691825 0.472519
v -0.370607 0.650661 0.554474
v -0.277348 1.000612 0.803741
v -0.238545 1.066151 0.667564
v -0.199742 1.131691 0.531388
v -0.313713 0.801181 0.396849
v 1.992802 1.805634 1.148839
v 0.641791 2.327431 1.631188
v 0.645115 2.378774 1.596052
v 2.010892 1.846217 1.080968
v 0.609337 2.404577 1.576280
v 1.975417 1.940909 1.042742
v -0.317688 2.751092 2.062027
v -0.311388 2.787643 2.047765
v -0.356584 2.810435 2.012089
v -1.298410 0.836061 0.358978
v -1.052960 1.190086 0.480406
v -1.033385 1.192128 0.692918
v -1.197879 0.641526 0.505453
v -0.919325 0.956953 0.876210
v -1.140300 0.505939 0.651928
v 1.651737 1.957700 0.983282
v 1.736170 2.001356 1.032413
v 1.670734 1.883086 1.181857
v 1.661599 1.881234 1.096540
v 1.811010 1.797149 1.155470
v 1.671461 1.783686 1.123920
v 0.550307 2.363552 1.567454
v 0.548795 2.281387 1.607940
v 0.590954 2.274449 1.659828
v -0.426196 2.777987 2.010911
v -0.449533 2.731404 2.033737
v -0.407510 2.712277 2.053854
v -0.672733 1.022674 0.839949
v 0.612203 2.300044 1.639198
v 1.897200 1.793630 1.174034
v -0.360136 2.714875 2.067662
v -0.714919 1.202655 0.505897
v 1.714561 1.875932 0.921802
v 1.849342 1.978959 1.011418
v 0.579801 2.388102 1.566633
v -0.396118 2.819198 1.991897
v -0.444340 2.808808 2.038728
v -0.464704 2.770899 2.050303
v -0.425654 2.743098 2.081672
v -0.383824 2.754221 2.104970
v -0.344988 2.793897 2.107841
v -0.378844 2.844679 2.050174
v -0.414262 2.850018 2.019717
v -0.470840 2.856291 2.081589
v -0.491203 2.818382 2.093163
v -0.452153 2.790581 2.124537
v -0.404779 2.793179 2.138345
v -0.367545 2.833583 2.145875
v -0.401937 2.887390 2.086689
v -0.440761 2.897501 2.062578
v 3.520086 4.391543 3.509073
v 4.908083 4.447537 3.525258
v 4.916417 4.463768 3.507065
v 3.533472 4.424756 3.480910
v 4.910625 4.478176 3.513286
v 3.512261 4.445304 3.487453
v 3.469532 4.456676 3.511907
v 4.895164 4.490851 3.532745
v 4.886206 4.486794 3.546612
v 3.450200 4.443913 3.531421
v 4.888024 4.465520 3.549029
v 3.464528 4.408998 3.538170
v 3.488205 4.388843 3.527746
v 4.894484 4.451015 3.540324
v 4.903533 4.494172 3.514221
v 3.490884 4.468273 3.484277
v 5.225784 4.462134 3.519456
v -0.359179 2.867810 2.127136
v 1.782977 4.007599 3.163973
v 1.797480 4.040428 3.132913
v 1.779858 4.063872 3.141543
v 1.741615 4.080235 3.171123
v 1.722893 4.069190 3.193548
v 1.733283 4.031651 3.199611
v 1.752951 4.008387 3.186720
v 1.761190 4.090014 3.140184
v 1.666710 3.668633 2.291579
v 1.709468 3.649050 2.332026
v 1.689803 3.625921 2.255064
v 1.701102 3.614825 2.350765
v 1.723659 3.575140 2.312732
v -0.335663 2.826203 2.087955
v 1.732984 3.607445 2.292845
v 4.757441 3.912580 2.274424
v 4.766765 3.944889 2.254540
v 4.723584 3.963362 2.216758
v 4.743248 3.986495 2.293720
v 4.734883 3.952266 2.312458
v 4.700490 4.006073 2.253271
v 1.814164 3.265558 1.754351
v 1.854897 3.224783 1.772004
v 1.799038 3.229419 1.714553
v 1.840928 3.198668 1.797477
v 1.822377 3.153538 1.749565
v 1.838401 3.184156 1.729949
v 3.808125 3.090190 1.292907
v 3.814425 3.126742 1.278646
v 3.769229 3.149533 1.242967
v 3.790149 3.165302 1.318835
v 3.780826 3.132996 1.338722
v 3.746969 3.183777 1.281054
v 0.004934 1.126898 0.758909
v 0.047941 1.138971 0.685149
v 1.638826 1.672752 0.991696
v 1.708105 1.733458 0.926010
v 0.090948 1.151045 0.611388
v 1.777385 1.794164 0.860323
v -0.234216 1.481367 0.598440
v -0.215060 1.472170 0.714099
v -0.235517 1.375738 0.851410
v -0.115292 1.251318 0.805160
v 1.655144 1.714232 1.071796
v -0.077126 1.322312 0.604914
v 1.144935 1.347614 0.694987
v 0.588544 1.029155 0.583753
v 2.049301 2.287051 1.130424
v 2.600662 2.722134 1.189276
v 3.788037 3.633193 1.942639
v 3.532839 3.394187 1.630738
v 3.526273 4.235567 3.006122
v 3.680140 4.067420 2.587843
v 4.487316 4.132895 2.615765
v 4.592503 4.267939 3.008146
v 1.807716 1.775143 1.115131
v 1.967375 1.878918 0.970246
v 1.954783 1.773281 1.094383
v 1.948345 1.818613 1.006742
v 3.081651 1.375543 0.539682
v 3.072375 1.425044 0.512206
v 3.124815 1.463904 0.560512
v 3.046911 1.350070 0.575102
v 3.129942 1.388159 0.616726
v 3.157781 1.427995 0.580676
v 3.024368 2.051761 0.813333
v 3.264819 2.610820 1.045990
v 2.042676 1.250473 0.600422
v 1.338128 0.905218 0.474824
vn 0.029500 0.717600 0.695900
vn 0.942900 -0.322500 0.083700
vn 0.938100 -0.339000 0.071400
vn 0.470700 0.607400 0.639900
vn 0.467800 0.592400 0.656000
vn 0.517400 0.375500 0.769000
vn 0.439300 0.887900 0.136600
vn -0.870300 0.249300 0.424800
vn -0.833700 0.097400 0.543500
vn -0.730200 0.613700 0.300400
vn -0.530200 -0.429900 0.730800
vn -0.468700 -0.520000 -0.714000
vn -0.417600 -0.881100 -0.221800
vn -0.492500 -0.305700 -0.814900
vn -0.370300 -0.923700 0.098500
vn 0.199500 -0.489400 0.848900
vn 0.041300 -0.586900 0.808600
vn 0.259800 -0.529000 0.807900
vn 0.123100 -0.519800 0.845400
vn 0.291400 -0.126800 0.948200
vn 0.231500 -0.343100 0.910300
vn 0.333800 -0.179500 0.925400
vn 0.047400 0.305700 -0.951000
vn 0.061500 0.285400 -0.956400
vn 0.094000 0.347400 -0.933000
vn 0.036400 0.657500 -0.752600
vn 0.201200 0.942100 -0.268100
vn -0.123600 0.657300 -0.743400
vn 0.131600 0.842600 -0.522300
vn -0.381200 0.067200 -0.922100
vn -0.720300 0.092700 -0.687400
vn -0.646300 -0.602100 0.468800
vn 0.464800 -0.470500 0.750100
vn -0.167800 -0.722500 0.670700
vn 0.457700 0.756800 -0.466600
vn -0.704400 0.200000 -0.681000
vn -0.727400 0.189400 -0.659500
vn -0.699000 -0.653100 0.291300
vn 0.402500 -0.483300 0.777500
vn -0.177700 -0.704000 0.687600
vn 0.507200 0.709500 -0.489300
vn -0.711000 0.209200 -0.671400
vn 0.034700 -0.691600 -0.721400
vn 0.008500 0.348800 -0.937200
vn -0.029700 0.902500 0.429600
vn -0.014500 0.156900 0.987500
vn 0.041300 -0.996000 0.078600
vn 0.012600 -0.474700 0.880000
vn 0.020700 -0.042300 -0.998900
vn -0.025500 0.955900 0.292500
vn 0.022500 -0.751100 -0.659800
vn 0.038700 0.409200 -0.911600
vn 0.094900 0.937200 0.335600
vn 0.087800 0.119800 0.988900
vn 0.049100 -0.962600 0.266500
vn 0.071200 -0.489800 0.868900
vn 0.023000 0.068500 -0.997400
vn 0.093100 0.971900 0.216300
vn 0.583900 -0.602900 -0.543700
vn 0.285500 -0.703900 -0.650400
vn 0.445100 -0.037100 -0.894700
vn 0.094600 0.398200 -0.912400
vn -0.585700 0.722600 0.367200
vn -0.257300 0.921800 0.289800
vn -0.493800 0.119900 0.861300
vn -0.211800 0.099600 0.972200
vn 0.500000 -0.865000 -0.042200
vn 0.170400 -0.962700 0.210200
vn -0.157300 -0.471800 0.867500
vn -0.055200 -0.514600 0.855600
vn 0.422400 0.033600 -0.905800
vn 0.182800 0.058400 -0.981400
vn -0.557200 0.790800 0.253300
vn -0.243400 0.953500 0.177900
vn -0.320500 0.674300 0.665300
vn -0.146800 0.595700 -0.789700
vn 0.163900 -0.632400 0.757100
vn -0.274200 0.512500 0.813700
vn 0.316200 -0.658100 -0.683300
vn 0.288700 -0.560900 -0.775900
vn 0.048700 -0.533700 -0.844300
vn 0.088200 -0.851400 -0.517100
vn -0.043300 0.487900 0.871800
vn 0.083300 -0.664400 0.742700
vn -0.079100 0.622700 -0.778400
vn -0.088800 0.856500 0.508500
vn 0.877500 0.043900 0.477500
vn 0.634900 0.680100 -0.366600
vn -0.020800 0.667200 0.744600
vn -0.228100 0.711900 -0.664200
vn 0.228000 -0.699400 0.677400
vn 0.000500 0.613100 0.790000
vn -0.000500 -0.600600 -0.799500
vn -0.050700 -0.436200 -0.898400
vn -0.217600 -0.380900 -0.898600
vn -0.180800 -0.724200 -0.665500
vn 0.208500 0.546600 0.811000
vn 0.136100 -0.716100 0.684600
vn -0.132300 0.729400 -0.671200
vn 0.169800 0.790700 0.588200
vn 0.873900 0.041900 0.484400
vn 0.605400 0.729400 -0.318500
vn 0.312900 -0.924000 -0.219700
vn 0.346100 -0.916700 -0.199800
vn 0.196400 -0.942100 -0.271800
vn 0.364400 -0.913100 -0.183100
vn -0.333400 0.940900 0.059900
vn -0.283400 0.885800 0.367400
vn -0.287800 0.622400 0.727800
vn -0.262700 0.632800 0.728400
vn 0.174800 -0.247400 0.953000
vn -0.020800 -0.461200 0.887000
vn 0.132000 -0.090900 0.987100
vn 0.054000 -0.583400 0.810400
vn 0.142100 0.275300 -0.950800
vn 0.064300 0.267700 -0.961400
vn 0.106100 0.143800 -0.983900
vn 0.095700 0.303900 -0.947900
vn 0.112100 -0.625800 0.771900
vn 0.074600 -0.453100 0.888300
vn 0.028800 -0.412800 0.910400
vn -0.304200 0.132300 -0.943400
vn -0.212100 0.457800 -0.863400
vn -0.259300 0.493700 -0.830000
vn -0.155000 0.632500 -0.758900
vn -0.226200 0.759000 -0.610600
vn -0.118700 0.804700 -0.581700
vn -0.100500 0.843500 -0.527600
vn -0.130300 0.745000 -0.654200
vn -0.290300 0.872000 -0.394200
vn -0.134300 0.897900 -0.419300
vn -0.130800 0.921700 -0.365300
vn -0.097600 0.811700 -0.575900
vn -0.056700 0.891100 -0.450200
vn -0.043200 0.934900 -0.352300
vn -0.023000 0.932300 -0.360800
vn -0.139300 -0.864500 0.483000
vn 0.154100 0.526000 -0.836400
vn 0.363700 0.687700 -0.628400
vn 0.134000 0.659200 -0.739900
vn 0.406400 -0.820900 -0.401200
vn 0.493800 -0.742500 -0.452600
vn -0.483600 -0.408200 -0.774300
vn 0.040500 0.756900 -0.652200
vn -0.499500 -0.696300 -0.515500
vn -0.015700 -0.796900 0.604000
vn 0.500700 0.558200 0.661600
vn 0.502600 0.562000 0.657000
vn 0.623400 -0.122500 -0.772300
vn 0.567700 -0.791500 -0.226200
vn 0.098700 -0.944700 0.312700
vn 0.126200 -0.841500 0.525300
vn 0.000800 -0.711000 0.703200
vn -0.290600 0.220800 -0.931000
vn -0.168800 0.398800 -0.901400
vn -0.102400 0.497600 -0.861400
vn 0.054400 -0.425700 0.903200
vn 0.029300 -0.544700 0.838100
vn 0.081000 -0.570900 0.817000
usemtl Material.016
s 1
f 1//1 3//1 2//1
f 3//2 1//2 5//2 4//2
f 1//3 7//3 6//3 5//3
f 8//4 11//4 10//4 9//4
f 11//5 13//5 12//5 10//5
f 9//6 10//6 15//6 14//6
f 10//7 12//7 16//7 15//7
f 17//8 20//8 19//8 18//8
f 20//9 22//9 21//9 19//9
f 23//10 26//10 25//10 24//10
f 26//11 28//11 27//11 25//11
f 24//12 25//12 30//12 29//12
f 25//13 27//13 31//13 30//13
f 29//14 30//14 33//14 32//14
f 30//15 31//15 34//15 33//15
f 35//16 22//16 3//16
f 4//17 35//17 3//17
f 35//18 21//18 22//18
f 27//19 37//19 36//19 31//19
f 37//20 8//20 9//20 36//20
f 31//21 36//21 38//21 34//21
f 36//22 9//22 14//22 38//22
f 39//23 7//23 17//23
f 18//24 39//24 17//24
f 39//25 6//25 7//25
f 40//26 23//26 24//26 41//26
f 13//27 41//27 42//27 12//27
f 41//28 24//28 29//28 42//28
f 12//29 42//29 43//29 16//29
f 42//30 29//30 32//30 43//30
f 32//31 33//31 45//31 44//31
f 33//32 34//32 46//32 45//32
f 38//33 14//33 48//33 47//33
f 34//34 38//34 47//34 46//34
f 16//35 43//35 50//35 49//35
f 43//36 32//36 44//36 50//36
f 44//37 45//37 52//37 51//37
f 45//38 46//38 53//38 52//38
f 47//39 48//39 55//39 54//39
f 46//40 47//40 54//40 53//40
f 49//41 50//41 57//41 56//41
f 50//42 44//42 51//42 57//42
f 58//43 61//43 60//43 59//43
f 61//44 63//44 62//44 60//44
f 64//45 67//45 66//45 65//45
f 67//46 69//46 68//46 66//46
f 70//47 58//47 59//47 71//47
f 69//48 70//48 71//48 68//48
f 63//49 73//49 72//49 62//49
f 73//50 64//50 65//50 72//50
f 59//51 60//51 74//51
f 60//52 62//52 74//52
f 65//53 66//53 74//53
f 66//54 68//54 74//54
f 71//55 59//55 74//55
f 68//56 71//56 74//56
f 62//57 72//57 74//57
f 72//58 65//58 74//58
f 75//59 77//59 76//59 55//59
f 77//60 61//60 58//60 76//60
f 56//61 78//61 77//61 75//61
f 78//62 63//62 61//62 77//62
f 52//63 80//63 79//63 51//63
f 80//64 67//64 64//64 79//64
f 53//65 81//65 80//65 52//65
f 81//66 69//66 67//66 80//66
f 55//67 76//67 82//67 54//67
f 76//68 58//68 70//68 82//68
f 54//69 82//69 81//69 53//69
f 82//70 70//70 69//70 81//70
f 57//71 83//71 78//71 56//71
f 83//72 73//72 63//72 78//72
f 51//73 79//73 83//73 57//73
f 79//74 64//74 73//74 83//74
f 56//75 75//75 85//75 84//75
f 49//76 56//76 84//76 86//76
f 55//77 48//77 88//77 87//77
f 75//78 55//78 87//78 85//78
f 89//79 49//79 86//79 90//79
f 48//80 89//80 90//80 88//80
f 88//81 90//81 92//81 91//81
f 90//82 86//82 93//82 92//82
f 85//83 87//83 95//83 94//83
f 87//84 88//84 91//84 95//84
f 86//85 84//85 96//85 93//85
f 84//86 85//86 94//86 96//86
f 91//87 92//87 94//87 95//87
f 92//88 93//88 96//88 94//88
f 49//89 89//89 98//89 97//89
f 16//90 49//90 97//90 99//90
f 48//91 14//91 101//91 100//91
f 89//92 48//92 100//92 98//92
f 15//93 16//93 99//93 102//93
f 14//94 15//94 102//94 101//94
f 101//95 102//95 104//95 103//95
f 102//96 99//96 105//96 104//96
f 98//97 100//97 107//97 106//97
f 100//98 101//98 103//98 107//98
f 99//99 97//99 108//99 105//99
f 97//100 98//100 106//100 108//100
f 103//101 104//101 106//101 107//101
f 104//102 105//102 108//102 106//102
f 5//103 110//103 109//103 4//103
f 110//104 112//104 111//104 109//104
f 6//105 113//105 110//105 5//105
f 113//106 114//106 112//106 110//106
f 19//107 116//107 115//107 18//107
f 116//108 26//108 23//108 115//108
f 21//109 117//109 116//109 19//109
f 117//110 28//110 26//110 116//110
f 35//111 118//111 117//111 21//111
f 118//112 119//112 28//112 117//112
f 4//113 109//113 118//113 35//113
f 109//114 111//114 119//114 118//114
f 39//115 120//115 113//115 6//115
f 120//116 40//116 114//116 113//116
f 18//117 115//117 120//117 39//117
f 115//118 23//118 40//118 120//118
f 112//119 110//119 121//119
f 5//120 122//120 121//120 110//120
f 2//121 122//121 5//121 1//121
f 11//122 10//122 123//122
f 10//123 15//123 102//123
f 10//124 102//124 124//124 123//124
f 102//125 104//125 124//125
f 89//126 90//126 98//126
f 125//127 126//127 98//127 90//127
f 92//128 125//128 90//128
f 126//129 106//129 98//129
f 75//130 77//130 85//130
f 127//131 128//131 85//131 77//131
f 61//132 127//132 77//132
f 128//133 94//133 85//133
f 94//134 128//134 129//134
f 130//135 129//135 128//135 127//135
f 61//136 60//136 130//136 127//136
f 131//137 37//137 27//137
f 132//138 40//138 41//138
f 13//139 132//139 41//139
f 132//140 114//140 40//140
f 111//141 112//141 134//141 133//141
f 114//142 132//142 134//142 112//142
f 134//143 132//143 136//143 135//143
f 132//144 13//144 137//144 136//144
f 133//145 134//145 135//145 138//145
f 8//146 133//146 138//146 139//146
f 13//147 11//147 140//147 137//147
f 11//148 8//148 139//148 140//148
f 137//149 140//149 135//149 136//149
f 139//150 138//150 135//150 140//150
f 8//151 37//151 131//151 133//151
f 111//152 133//152 131//152 119//152
f 28//153 119//153 131//153 27//153
f 11//154 123//154 141//154 140//154
f 123//155 124//155 142//155 141//155
f 104//156 142//156 124//156
f 122//157 144//157 143//157 121//157
f 112//158 121//158 143//158
f 112//159 143//159 135//159 134//159
