# Blender v2.74 (sub 0) OBJ File: ''
# www.blender.org
mtllib back_left.mtl
o dragon.002
v 2.188316 -1.966105 1.262636
v 2.238777 -1.988979 0.934234
v 1.300633 -1.550325 0.861622
v 1.338067 -1.555231 1.206174
v 1.654293 -2.143198 0.933543
v 1.725555 -2.092463 1.248618
v 0.734723 -1.743848 1.146137
v 0.609469 -1.796644 0.777598
v 2.437672 -3.041341 1.269969
v 2.438820 -3.041204 0.947323
v 2.447840 -3.249661 1.325055
v 2.484554 -3.255448 0.905335
v 2.013481 -3.048401 0.981413
v 2.042180 -3.044347 1.099910
v 1.984782 -3.052454 0.862915
v 2.070879 -3.040293 1.218408
v 1.261230 -3.254814 1.333796
v 1.446700 -3.166289 1.316820
v 1.772207 -3.243410 1.146618
v 1.271989 -3.263778 1.399348
v 1.795311 -3.252374 1.300624
v 1.472447 -3.158086 1.341191
v 1.260981 -3.247375 1.026741
v 1.447132 -3.139279 1.071172
v 1.754540 -3.234446 0.954558
v 1.480027 -3.130773 1.106763
v 1.273212 -3.251114 1.120854
v 1.441525 -3.155454 0.792523
v 1.268272 -3.245371 0.753397
v 1.302503 -3.241590 0.679955
v 1.736873 -3.225482 0.762498
v 1.438172 -3.137734 0.702551
v 1.946535 -2.066089 0.933888
v 0.960840 -1.687631 0.732162
v 1.956936 -2.029284 1.255627
v 1.036395 -1.630180 1.239766
v 2.254276 -3.040817 1.244189
v 2.211801 -3.046829 0.905119
v 2.110713 -3.240465 0.833917
v 2.121575 -3.251018 1.312839
v 2.110024 -3.246535 1.235837
v 2.119547 -3.244946 0.929947
v 0.462930 -0.790253 0.964480
v 0.384909 -0.301922 0.872950
v 0.387097 -0.736095 0.472519
v 0.427292 -1.035504 0.581018
v 0.596071 -1.314773 1.053951
v 0.506072 -1.456776 0.711643
v 1.395927 -1.107280 0.688178
v 1.366772 -0.763881 0.533363
v 1.371554 -0.291955 0.770272
v 1.410000 -0.783711 0.937107
v 1.362060 -1.303998 0.774900
v 1.365765 -1.208215 1.057895
v 0.878232 -0.247156 0.882456
v 0.930953 -0.724909 1.002103
v 0.983674 -1.172064 1.133267
v 0.876935 -0.752754 0.472519
v 0.904903 -1.064380 0.559066
v 0.932871 -1.376005 0.645614
vn 0.432800 0.901500 -0.004400
vn 0.425400 0.904400 -0.033300
vn 0.427300 0.903700 -0.026300
vn -0.342900 -0.911200 0.228600
vn -0.344000 -0.911700 0.224600
vn -0.339000 -0.909200 0.241700
vn 0.980500 0.194400 0.028300
vn 0.982400 0.186800 0.003600
vn 0.969600 0.218400 0.110100
vn 0.987000 0.156600 0.035000
vn 0.978100 0.208100 0.003600
vn 0.991800 0.111900 0.061800
vn -0.904000 -0.341600 0.257200
vn -0.908300 -0.348200 0.231900
vn -0.907400 -0.346800 0.237300
vn -0.911500 -0.339500 0.232400
vn -0.320700 0.466100 -0.824500
vn -0.381000 0.312500 -0.870200
vn -0.374200 0.331800 -0.866000
vn -0.003100 -0.992500 -0.122300
vn 0.000900 -0.998300 -0.058200
vn 0.000600 -0.997900 -0.064200
vn -0.225900 0.971200 -0.075700
vn -0.190600 0.981600 0.012600
vn -0.192000 0.981400 0.009200
vn 0.176200 0.187800 0.966300
vn 0.177800 0.193700 0.964800
vn 0.169600 0.162600 0.972000
vn -0.410600 0.892800 0.185300
vn -0.426600 0.891800 0.150500
vn -0.424200 0.892100 0.155800
vn -0.147600 0.539200 -0.829200
vn -0.207100 0.416000 -0.885500
vn -0.196600 0.439200 -0.876600
vn -0.048900 0.218100 0.974700
vn -0.053600 0.206600 0.977000
vn -0.032900 0.256400 0.966000
vn 0.019500 -0.998900 -0.043600
vn 0.020000 -0.998900 -0.042300
vn 0.018200 -0.998700 -0.047500
vn -0.168300 0.983200 -0.070200
vn -0.151900 0.988400 0.003000
vn -0.152700 0.988300 -0.000600
vn -0.513400 0.850200 0.116700
vn -0.476300 0.846500 0.238000
vn -0.484300 0.848300 0.214100
vn -0.365200 0.334900 0.868600
vn -0.367300 0.329100 0.869900
vn -0.354400 0.363100 0.861700
vn 0.043100 -0.998400 -0.036100
vn 0.043000 -0.998600 -0.031400
vn 0.043300 -0.997900 -0.048800
vn -0.205600 0.962300 0.178400
vn -0.187800 0.982100 0.011900
vn -0.189500 0.981500 0.025900
vn 0.198400 0.005900 -0.980100
vn 0.247900 0.195500 -0.948900
vn 0.241200 0.168200 -0.955800
vn -0.484100 0.872300 -0.069600
vn -0.427700 0.890800 -0.153500
vn -0.572800 0.815500 0.083400
vn 0.071900 -0.309600 -0.948100
vn 0.004900 -0.398100 -0.917300
vn 0.011600 -0.389500 -0.921000
vn 0.060000 -0.064400 -0.996100
vn 0.272800 0.210100 -0.938900
vn 0.249800 0.179500 -0.951500
vn -0.032600 0.061600 0.997600
vn -0.043200 0.047700 0.997900
vn 0.054400 0.173600 0.983300
vn -0.042800 -0.044800 0.998100
vn -0.025200 -0.018500 0.999500
vn -0.179700 -0.249600 0.951500
vn -0.125500 -0.024700 0.991800
vn -0.139200 -0.025500 0.989900
vn -0.037700 -0.019500 0.999100
vn -0.124500 -0.050500 0.990900
vn -0.139200 -0.052100 0.988900
vn -0.032800 -0.040500 0.998600
vn 0.148200 0.076700 -0.986000
vn -0.017600 0.071100 -0.997300
vn 0.011100 0.072200 -0.997300
vn 0.152400 0.023300 -0.988000
vn -0.006100 0.027700 -0.999600
vn 0.021100 0.027000 -0.999400
vn 0.180300 0.266800 -0.946700
vn 0.191100 0.273400 -0.942700
vn 0.182500 0.268200 -0.945900
vn 0.181400 0.236200 -0.954600
vn 0.191400 0.249200 -0.949400
vn 0.185200 0.241100 -0.952700
vn -0.080000 0.294600 0.952300
vn -0.134200 0.247200 0.959600
vn -0.075200 0.298700 0.951400
vn -0.069300 0.394000 0.916500
vn -0.127700 0.379800 0.916200
vn -0.085700 0.390200 0.916700
vn -0.021500 -0.999400 -0.027500
vn -0.031700 -0.998500 -0.043700
vn -0.015800 -0.999700 -0.018200
vn -0.020100 -0.999800 0.004100
vn -0.029200 -0.999600 -0.006100
vn -0.020300 -0.999800 0.004000
vn 0.006400 -0.998200 -0.059100
vn -0.983700 -0.113500 0.139100
vn -0.981900 -0.131200 0.136900
vn -0.984600 -0.104000 0.140300
vn -0.955900 -0.145300 0.255300
vn -0.953900 -0.204700 0.219600
vn -0.955800 -0.159100 0.247100
vn -0.915900 -0.218600 0.336800
vn -0.918800 -0.215300 0.330900
vn -0.915700 -0.218800 0.337200
vn 0.993700 0.039800 -0.104400
vn 0.993600 0.042300 -0.104300
vn 0.993700 0.040000 -0.104400
vn 0.992100 -0.115400 0.049400
vn 0.994500 -0.087300 0.057300
vn 0.992500 -0.111600 0.050500
vn 0.985100 -0.168600 -0.033100
vn 0.973300 -0.220900 0.062000
vn 0.985100 -0.168500 -0.033200
vn 0.202200 0.294400 0.934000
vn 0.236500 0.260500 0.936000
vn 0.201200 0.295400 0.934000
vn 0.184700 0.274000 0.943800
vn 0.164000 0.295400 0.941200
vn 0.185900 0.272700 0.944000
vn 0.121800 0.293100 0.948300
vn 0.213400 0.369400 0.904400
vn 0.142700 0.310800 0.939700
vn -0.073000 0.203300 0.976400
vn -0.038700 0.178100 0.983200
vn -0.074300 0.204300 0.976100
vn -0.182100 0.179000 0.966800
vn -0.114200 0.267200 0.956800
vn -0.172000 0.192500 0.966100
vn -0.298400 0.139600 0.944200
vn -0.263400 0.189600 0.945900
vn -0.289500 0.152600 0.944900
vn -0.029500 -0.316800 -0.948000
vn -0.011600 -0.342100 -0.939600
vn -0.042600 -0.298200 -0.953500
vn -0.075300 -0.294000 -0.952800
vn -0.062200 -0.306200 -0.949900
vn -0.079100 -0.290400 -0.953600
vn -0.077400 -0.238600 -0.968000
vn -0.096100 -0.274400 -0.956800
vn -0.081200 -0.245800 -0.965900
vn 0.149500 -0.310100 -0.938900
vn 0.113400 -0.256400 -0.959900
vn 0.171000 -0.341800 -0.924100
vn 0.253800 -0.291300 -0.922300
vn 0.227000 -0.241700 -0.943400
vn 0.289100 -0.357500 -0.888000
vn 0.386200 -0.276000 -0.880200
vn 0.324800 -0.385100 -0.863800
vn 0.362900 -0.319100 -0.875500
vn 0.434900 0.900500 0.004100
vn -0.338000 -0.908700 0.245000
vn 0.965300 0.224800 0.132700
vn 0.993800 0.071200 0.085900
vn -0.903600 -0.341100 0.259300
vn -0.309200 0.491600 -0.814100
vn -0.003800 -0.990900 -0.134900
vn -0.229300 0.969700 -0.084200
vn 0.168500 0.158300 0.972900
vn -0.408800 0.892800 0.189200
vn -0.133900 0.565100 -0.814100
vn -0.029100 0.265500 0.963700
vn 0.017900 -0.998700 -0.048300
vn -0.170000 0.982400 -0.077700
vn -0.517500 0.849700 0.101000
vn -0.352900 0.367000 0.860700
vn 0.043300 -0.997800 -0.050600
vn -0.207200 0.958400 0.196500
vn 0.187700 -0.031600 -0.981700
vn -0.616700 0.767700 0.174200
vn 0.079900 -0.298700 -0.951000
vn 0.028500 -0.103600 -0.994200
vn 0.063300 0.184900 0.980700
vn -0.192000 -0.268100 0.944100
vn -0.025200 -0.018700 0.999500
vn -0.019600 -0.039000 0.999000
vn 0.180400 0.077500 -0.980500
vn 0.182200 0.022400 -0.983000
vn 0.170200 0.260600 -0.950300
vn 0.172700 0.224800 -0.959000
vn -0.036700 0.331100 0.942900
vn -0.035900 0.401500 0.915200
vn -0.007800 -1.000000 -0.005400
vn -0.012600 -0.999800 0.012700
vn -0.986400 -0.080500 0.143200
vn -0.953600 -0.089100 0.287700
vn -0.913200 -0.221600 0.342100
vn 0.993800 0.037200 -0.104600
vn 0.987500 -0.152900 0.038800
vn 0.986100 -0.125300 -0.108900
vn 0.166500 0.328400 0.929700
vn 0.210000 0.247300 0.945900
vn 0.050600 0.231700 0.971500
vn -0.109800 0.230000 0.967000
vn -0.236300 0.104800 0.966000
vn -0.327900 0.096000 0.939800
vn -0.060600 -0.272200 -0.960300
vn -0.061600 -0.208200 -0.976100
vn 0.202500 -0.388100 -0.899100
vn 0.325800 -0.427800 -0.843100
vn 0.420400 -0.207600 -0.883300
usemtl Material.003
s 1
f 2//1 3//2 4//3
f 5//4 6//5 7//6
f 9//7 10//8 2//9
f 12//10 10//11 9//12
f 5//13 13//14 14//15
f 5//14 15//14 13//14
f 6//16 14//16 16//16
f 18//17 14//18 19//19
f 17//20 19//21 21//22
f 22//23 16//24 14//25
f 22//26 20//27 21//28
f 20//29 22//30 18//31
f 24//32 13//33 25//34
f 26//35 27//36 19//37
f 27//38 23//39 25//40
f 26//41 14//42 13//43
f 27//44 26//45 24//46
f 28//47 29//48 25//49
f 29//50 30//51 31//52
f 28//53 13//54 15//55
f 32//56 15//57 31//58
f 30//59 29//60 28//61
f 5//62 8//63 34//64
f 33//65 34//66 3//67
f 35//68 1//69 4//70
f 6//71 35//72 36//73
f 37//74 9//75 1//76
f 16//77 37//78 35//79
f 15//80 5//81 33//82
f 38//83 33//84 2//85
f 39//86 31//87 15//88
f 12//89 39//90 38//91
f 11//92 9//93 37//94
f 40//95 37//96 16//97
f 19//98 25//99 42//100
f 41//101 42//102 12//103
f 40//104 41//104 11//104
f 21//104 19//104 41//104
f 42//99 39//99 12//99
f 25//99 31//99 39//99
f 43//105 44//106 45//107
f 47//108 43//109 46//110
f 47//111 48//112 8//113
f 50//114 51//115 52//116
f 49//117 52//118 54//119
f 3//120 53//121 54//122
f 51//123 55//124 56//125
f 52//126 56//127 57//128
f 4//129 54//130 57//131
f 55//132 44//133 43//134
f 57//135 56//136 43//137
f 36//138 57//139 47//140
f 46//141 45//142 58//143
f 48//144 46//145 59//146
f 48//147 60//148 34//149
f 59//150 58//151 50//152
f 60//153 59//154 49//155
f 60//156 53//157 3//158
f 1//159 2//1 4//3
f 8//160 5//4 7//6
f 1//161 9//7 2//9
f 11//162 12//10 9//12
f 6//163 5//13 14//15
f 17//164 18//17 19//19
f 20//165 17//20 21//22
f 18//166 22//23 14//25
f 16//167 22//26 21//28
f 17//168 20//29 18//31
f 23//169 24//32 25//34
f 14//170 26//35 19//37
f 19//171 27//38 25//40
f 24//172 26//41 13//43
f 23//173 27//44 24//46
f 13//174 28//47 25//49
f 25//175 29//50 31//52
f 32//176 28//53 15//55
f 30//177 32//56 31//58
f 32//178 30//59 28//61
f 33//179 5//62 34//64
f 2//180 33//65 3//67
f 36//181 35//68 4//70
f 7//182 6//71 36//73
f 35//183 37//74 1//76
f 6//184 16//77 35//79
f 38//185 15//80 33//82
f 10//186 38//83 2//85
f 38//187 39//86 15//88
f 10//188 12//89 38//91
f 40//189 11//92 37//94
f 21//190 40//95 16//97
f 41//191 19//98 42//100
f 11//192 41//101 12//103
f 40//104 21//104 41//104
f 42//99 25//99 39//99
f 46//193 43//105 45//107
f 48//194 47//108 46//110
f 7//195 47//111 8//113
f 49//196 50//114 52//116
f 53//197 49//117 54//119
f 4//198 3//120 54//122
f 52//199 51//123 56//125
f 54//200 52//126 57//128
f 36//201 4//129 57//131
f 56//202 55//132 43//134
f 47//203 57//135 43//137
f 7//204 36//138 47//140
f 59//205 46//141 58//143
f 60//148 48//144 59//146
f 8//206 48//147 34//149
f 49//207 59//150 50//152
f 53//208 60//153 49//155
f 34//209 60//156 3//158
