# Blender v2.74 (sub 0) OBJ File: ''
# www.blender.org
mtllib easyleg.mtl
o dragon.001
v -0.329231 -1.761170 1.218286
v -0.392551 -1.641637 1.536995
v -1.233776 -3.019583 1.428959
v -1.130900 -3.009293 1.204342
v -0.839185 -1.836985 1.231756
v -1.453285 -3.014735 1.198058
v -0.947200 -1.766513 1.570016
v -1.501644 -2.991978 1.435981
v -1.829490 -3.209639 1.552953
v -1.133404 -3.219784 1.518885
v -1.005846 -3.222084 1.092134
v -1.726935 -3.209899 1.095373
v -1.469405 -3.007149 1.277366
v -1.485525 -2.999563 1.356673
v -1.795305 -3.209726 1.400426
v -1.761120 -3.209812 1.247899
v -1.906513 -3.095519 1.213094
v -1.935524 -3.206934 1.183627
v -1.910024 -3.207021 1.057157
v -1.890393 -3.103104 1.133787
v -2.163188 -3.205542 1.048491
v -2.093856 -3.135844 1.090382
v -2.121555 -3.128258 1.146528
v -2.182898 -3.205456 1.137328
v -1.936871 -3.205534 1.229143
v -1.893407 -3.095078 1.258610
v -1.883043 -3.087493 1.349504
v -1.944572 -3.205447 1.393257
v -2.131630 -3.141580 1.281085
v -2.127056 -3.133994 1.337239
v -2.189561 -3.211783 1.369411
v -2.176070 -3.211869 1.260303
v -2.005366 -3.207097 1.474980
v -1.964503 -3.108300 1.480443
v -1.978755 -3.207011 1.604347
v -1.928512 -3.100715 1.556854
v -2.070013 -3.130337 1.601081
v -2.148384 -3.198627 1.622517
v -2.106004 -3.137922 1.524668
v -2.166310 -3.198714 1.548156
v -1.584386 -0.616946 1.277061
v -1.884875 0.069550 0.940999
v -1.575419 -0.808199 0.865651
v -0.888217 -0.600845 1.284727
v -1.082984 0.051068 0.940999
v -0.851028 -0.848356 0.865093
v -1.207302 -1.322592 1.048703
v -1.667435 -0.882994 0.759105
vn 0.788200 -0.508600 0.346500
vn 0.788100 -0.508300 0.347200
vn 0.789700 -0.510800 0.339800
vn -0.025600 0.029700 -0.999200
vn -0.031000 0.031100 -0.999000
vn 0.011600 0.020500 -0.999700
vn 0.081700 -0.129900 0.988200
vn 0.014200 -0.115100 0.993300
vn 0.026200 -0.117700 0.992700
vn 0.054200 0.417800 0.906900
vn 0.050500 0.412700 0.909500
vn 0.059400 0.424700 0.903400
vn 0.004900 0.463300 -0.886200
vn 0.009300 0.470700 -0.882300
vn 0.006900 0.466700 -0.884400
vn 0.849500 0.435300 0.298100
vn 0.753300 0.543800 0.369900
vn 0.823200 0.468800 0.320300
vn -0.859100 0.451800 -0.240300
vn -0.832900 0.425000 -0.354500
vn -0.834400 0.426300 -0.349400
vn -0.862600 0.456000 -0.219000
vn -0.879700 0.422000 -0.219200
vn -0.015100 -0.999900 -0.001700
vn -0.016100 -0.999900 0.000600
vn -0.015900 -0.999900 0.000100
vn -0.014700 -0.999900 -0.002700
vn -0.016900 -0.999900 -0.003200
vn -0.211300 0.028800 0.977000
vn -0.163000 0.091800 0.982300
vn -0.272900 -0.054700 0.960500
vn -0.015400 -0.999900 -0.002700
vn -0.015400 -0.999900 -0.002900
vn -0.015300 -0.999900 -0.002600
vn -0.178200 0.975400 -0.129500
vn 0.086100 0.451300 -0.888200
vn 0.177400 0.562100 -0.807800
vn 0.124800 0.499300 -0.857400
vn 0.068100 0.561000 -0.825000
vn 0.032700 0.490800 -0.870700
vn 0.044600 0.514800 -0.856100
vn -0.125200 0.983300 -0.132000
vn -0.132500 0.983800 -0.121000
vn -0.101700 0.980700 -0.167000
vn -0.005800 -1.000000 -0.000500
vn -0.005900 -1.000000 -0.000300
vn -0.005900 -1.000000 -0.000400
vn -0.249600 -0.138200 0.958400
vn -0.265500 -0.181300 0.946900
vn -0.203300 -0.019100 0.978900
vn -0.680300 0.670300 -0.296300
vn -0.656000 0.740500 -0.146300
vn -0.673800 0.697500 -0.243700
vn 0.045000 0.144200 -0.988500
vn 0.108800 0.216000 -0.970300
vn 0.070800 0.173300 -0.982300
vn -0.068700 0.341200 0.937500
vn -0.089400 0.327600 0.940600
vn -0.063700 0.344500 0.936600
vn -0.026100 -0.999700 -0.002900
vn -0.028600 -0.999600 -0.000800
vn -0.026200 -0.999700 -0.002800
vn -0.210000 0.969800 -0.124300
vn -0.200200 0.978000 -0.058800
vn -0.201500 0.977200 -0.067200
vn -0.186300 0.980100 -0.068700
vn -0.200800 0.972900 -0.115100
vn -0.197200 0.974900 -0.103500
vn 0.026400 -0.999600 0.002400
vn 0.025500 -0.999700 0.003900
vn 0.025900 -0.999700 0.003200
vn -0.116900 0.410500 0.904300
vn -0.122000 0.400500 0.908100
vn -0.104200 0.435100 0.894300
vn -0.145500 0.317900 -0.936900
vn -0.130000 0.355800 -0.925500
vn -0.134400 0.345100 -0.928900
vn -0.807200 0.587000 -0.062900
vn -0.826800 0.553100 -0.102700
vn -0.811300 0.580300 -0.070900
vn -0.300200 0.229600 -0.925800
vn -0.326500 0.186300 -0.926600
vn -0.315400 0.204800 -0.926600
vn -0.014400 -0.999900 -0.000200
vn -0.016200 -0.999900 0.004000
vn -0.015000 -0.999900 0.001100
vn -0.253300 0.958700 -0.129300
vn -0.254100 0.956500 -0.143100
vn -0.243800 0.969800 -0.000500
vn 0.258200 0.200900 0.945000
vn 0.227500 0.172400 0.958400
vn 0.276200 0.217500 0.936200
vn 0.188300 0.264400 0.945800
vn 0.224800 0.306900 0.924800
vn 0.153700 0.223900 0.962400
vn -0.205100 0.978700 -0.000600
vn -0.047500 -0.998800 0.011000
vn -0.048000 -0.998800 0.012700
vn -0.047700 -0.998800 0.011800
vn -0.351700 0.151800 -0.923700
vn -0.410800 0.056000 -0.910000
vn -0.387600 0.094800 -0.917000
vn -0.633300 0.750000 0.191000
vn -0.669000 0.725700 0.160400
vn -0.640700 0.745200 0.184900
vn -0.844600 -0.509800 -0.163500
vn -0.930400 -0.339800 0.137700
vn -0.005100 0.452500 0.891800
vn -0.020400 0.461500 0.886900
vn -0.003900 0.451700 0.892200
vn -0.001700 0.237800 0.971300
vn 0.004400 0.237500 0.971400
vn -0.011200 0.238200 0.971100
vn 0.965000 0.254300 -0.064500
vn 0.901800 0.412800 -0.128000
vn 0.906100 0.394600 -0.152400
vn 0.881200 0.470500 -0.045800
vn -0.000200 -0.360900 -0.932600
vn 0.022700 -0.320700 -0.946900
vn -0.020000 -0.347900 -0.937300
vn -0.828600 -0.514300 0.221000
vn 0.790000 -0.511200 0.338400
vn 0.019200 0.018600 -0.999600
vn 0.088400 -0.131400 0.987400
vn 0.068600 0.437200 0.896800
vn 0.003800 0.461400 -0.887200
vn 0.886000 0.382100 0.262800
vn -0.343800 -0.155400 0.926100
vn -0.015200 -0.999900 -0.002400
vn 0.051800 0.407200 -0.911900
vn 0.079000 0.581900 -0.809400
vn -0.093800 0.979400 -0.178600
vn -0.183700 0.028900 0.982600
vn -0.686000 0.595000 -0.418800
vn 0.019900 0.115700 -0.993100
vn -0.034300 0.363300 0.931100
vn -0.023800 -0.999700 -0.004800
vn -0.211600 0.967900 -0.135600
vn -0.183900 0.981100 -0.060900
vn 0.026700 -0.999600 0.001800
vn -0.098100 0.446600 0.889300
vn -0.149000 0.309200 -0.939300
vn -0.783400 0.621200 -0.020100
vn -0.293600 0.240200 -0.925300
vn -0.013400 -0.999900 -0.002400
vn -0.242100 0.970100 0.017700
vn 0.318700 0.257000 0.912400
vn 0.113500 0.176700 0.977700
vn -0.047300 -0.998800 0.010400
vn -0.328500 0.187100 -0.925800
vn -0.608800 0.764800 0.210800
vn 0.010200 0.443300 0.896300
vn -0.016200 0.238500 0.971000
vn 0.870100 0.492800 -0.011900
usemtl Material.002
s 1
f 1//1 2//2 3//3
f 5//4 1//5 4//6
f 7//7 8//8 3//9
f 8//10 9//11 10//12
f 6//13 4//14 11//15
f 4//16 3//17 10//18
f 14//19 7//20 5//21
f 6//22 13//22 5//22
f 14//23 8//23 7//23
f 16//24 11//25 10//26
f 9//27 15//27 10//27
f 16//28 12//28 11//28
f 16//29 13//30 17//31
f 12//32 16//33 18//34
f 13//35 6//35 20//35
f 12//36 19//37 20//38
f 19//39 21//40 22//41
f 17//42 20//43 22//44
f 18//45 24//46 21//47
f 18//48 17//49 23//50
f 22//51 21//52 24//53
f 16//54 25//55 26//56
f 15//57 14//58 27//59
f 15//60 28//61 25//62
f 13//63 26//64 27//65
f 26//66 29//67 30//68
f 28//69 31//70 32//71
f 28//72 27//73 30//74
f 25//75 32//76 29//77
f 29//78 32//79 31//80
f 15//81 33//82 34//83
f 9//84 35//85 33//86
f 8//87 14//88 34//89
f 9//90 8//91 36//92
f 35//93 36//94 37//95
f 34//96 39//96 37//96
f 35//97 38//98 40//99
f 33//100 40//101 39//102
f 39//103 40//104 38//105
f 7//106 41//106 5//106
f 41//107 42//107 43//107
f 41//108 44//109 45//110
f 7//111 2//112 44//113
f 45//114 44//114 46//114
f 46//115 44//116 2//117
f 47//118 46//118 1//118
f 5//119 47//119 1//119
f 47//120 43//120 46//120
f 43//121 47//121 41//121
f 47//121 5//121 41//121
f 4//122 1//1 3//3
f 6//123 5//4 4//6
f 2//124 7//7 3//9
f 3//125 8//10 10//12
f 12//126 6//13 11//15
f 11//127 4//16 10//18
f 13//22 14//19 5//21
f 15//27 16//24 10//26
f 18//128 16//29 17//31
f 19//129 12//32 18//34
f 17//35 13//35 20//35
f 6//130 12//36 20//38
f 20//131 19//39 22//41
f 23//132 17//42 22//44
f 19//45 18//45 21//47
f 24//133 18//48 23//50
f 23//134 22//51 24//53
f 13//135 16//54 26//56
f 28//136 15//57 27//59
f 16//137 15//60 25//62
f 14//138 13//63 27//65
f 27//139 26//66 30//68
f 25//140 28//69 32//71
f 31//141 28//72 30//74
f 26//142 25//75 29//77
f 30//143 29//78 31//80
f 14//144 15//81 34//83
f 15//145 9//84 33//86
f 36//146 8//87 34//89
f 35//147 9//90 36//92
f 38//148 35//93 37//95
f 36//96 34//96 37//96
f 33//149 35//97 40//99
f 34//150 33//100 39//102
f 37//151 39//103 38//105
f 42//152 41//108 45//110
f 41//153 7//111 44//113
f 1//154 46//115 2//117
l 48 43
